<svg version="1.1" xmlns="http://www.w3.org/2000/svg" xmlns:xlink="http://www.w3.org/1999/xlink" class="thumbnail-icon" viewBox="-219.61471557617188 -0.0000020265579223632812 639.2293701171875 199.99998474121094">
  <g data-paper-data="{&quot;fillRule&quot;:&quot;nonzero&quot;,&quot;initialText&quot;:&quot;m&quot;,&quot;selectedEffects&quot;:{&quot;container&quot;:&quot;&quot;,&quot;transformation&quot;:&quot;&quot;,&quot;pattern&quot;:&quot;&quot;},&quot;bounds&quot;:{&quot;x&quot;:65,&quot;y&quot;:207.23424219400138,&quot;width&quot;:177.48688986690888,&quot;height&quot;:55.531515611997264},&quot;isIcon&quot;:&quot;true&quot;,&quot;iconType&quot;:&quot;initial&quot;,&quot;iconStyle&quot;:&quot;standalone&quot;,&quot;rawInitialId&quot;:628}">
    <path d="M197.45502,124.37502c7.79345,-3.28145 -129.20734,61.11711 -178.42919,61.11711c-38.5571,0 -0.41019,-84.4975 0.41019,-109.5186c0.82036,-29.5331 -17.22765,-40.60801 -36.09601,-35.68584c-28.71275,6.9731 -51.68294,51.68294 -64.39859,75.88369c7.79345,-25.84146 15.58691,-54.9644 19.68874,-80.80585c2.4611,-16.40729 0,-33.22475 -19.68874,-35.27565c-35.68584,-3.69165 -91.47059,107.46769 -100.90479,125.92589c3.69165,-15.17674 8.20365,-30.35346 13.536,-45.94039l6.9731,-20.5091c5.33236,-15.17674 -31.17384,-15.58691 -35.68584,-4.10181c-10.25455,26.25165 -29.12291,95.16224 -20.09891,123.46479c3.28145,9.024 20.91929,9.84436 27.072,-1.23055c9.024,-15.9971 16.40729,-33.63494 25.84146,-48.81165c11.89529,-23.38039 86.5484,-149.30625 69.32075,-93.93169c-9.024,30.76365 -38.14694,118.13244 -21.73965,146.0248c4.10181,7.38329 16.40729,7.38329 20.91929,0.82036c4.512,-6.15274 73.0124,-151.76735 81.62624,-118.95279c6.9731,25.43129 -40.19784,141.92299 30.35346,137.0008c56.19494,-3.69165 168.5848,-58.65604 182.12083,-65.21895c45.5302,-20.91929 135.77025,-58.24585 183.76154,-29.12291c35.68584,21.32946 31.17384,69.32075 -6.5629,66.85966c-6.15274,-1.23055 -6.15274,8.20365 0,9.024c49.63204,3.28145 59.88659,-65.21895 18.048,-91.47059c-50.0422,-31.9942 -147.66554,12.30545 -196.067,34.4553z" fill-rule="nonzero" fill="#ffffff"></path>
  </g>
</svg>
